# xmcd CD database file
#
# Track frame offsets:
#	150
#	15779
#	33995
#	53506
#	69651
#	86422
#	100410
#	167134
#	183220
#	196887
#	212038
#	224810
#	241002
#
# Disc length: 3431 seconds
#
# Revision: 0
# Processed by: cddbd v1.5.2PL0 Copyright (c) Steve Scherf et al.
# Submitted via: CDex 1.51
#
DISCID=a70d650d
DTITLE=Hal Ketchum - One More Midnight
DYEAR=2007
DGENRE=Country
TTITLE0=One More Midnight
TTITLE1=Just This Side Of Heaven
TTITLE2=Travellin' Teardrop Blues
TTITLE3=Save Tonight For Me
TTITLE4=Gonna Start Livin' Again
TTITLE5=Alamo
TTITLE6=Poor Lila's Ghost
TTITLE7=My Love Will Not Change
TTITLE8=Forever Mine
TTITLE9=One Of The Things
TTITLE10=The Moment
TTITLE11=Little Red Dress
TTITLE12=Medal Of Honor
EXTD=YEAR: 2007
EXTT0=
EXTT1=
EXTT2=
EXTT3=
EXTT4=
EXTT5=
EXTT6=
EXTT7=
EXTT8=
EXTT9=
EXTT10=
EXTT11=
EXTT12=
PLAYORDER=
